<?xml version="1.0" encoding="utf-8"?>
<!-- Svg Vector Icons : http://www.onlinewebfonts.com/icon -->
<!DOCTYPE svg PUBLIC "-//W3C//DTD SVG 1.1//EN" "http://www.w3.org/Graphics/SVG/1.1/DTD/svg11.dtd">
<svg version="1.1" xmlns="http://www.w3.org/2000/svg" xmlns:xlink="http://www.w3.org/1999/xlink" x="0px" y="0px" viewBox="0 0 256 256" enable-background="new 0 0 256 256" xml:space="preserve">
<metadata> Svg Vector Icons : http://www.onlinewebfonts.com/icon </metadata>
<g><g><g><path fill="#000000" d="M14.7,81.9c-1.4,0.8-2.6,2.2-3.5,3.6L10,87.9v39.8c0,37.5,0.1,39.9,1,42c1.2,2.6,3.3,4.4,6.1,5.2c1.4,0.4,36.8,0.6,112,0.4c104.2-0.2,110.2-0.2,111.9-1.2c0.9-0.6,2.4-2,3.3-3.3l1.5-2.3l0.2-39.3c0.1-26.4-0.1-40-0.4-41.5c-0.3-1.2-1.2-2.9-2-3.9c-3-3.6,6.3-3.3-115.6-3.3h-111L14.7,81.9z M144.7,83.5c-0.6,0.7-1.4,2-1.7,2.8c-0.4,1-0.6,14.7-0.6,41.9v40.3l1.4,2.4l1.4,2.4h-64c-70.3,0-66.3,0.2-68.1-3.3c-0.7-1.4-0.8-7-0.8-42.3c0-45-0.2-42,3.5-44.3c1.7-1,3.7-1,65.9-1h64.2L144.7,83.5z M240.4,83.4c3.6,2.2,3.5,0.2,3.5,45V169l-2.2,2.2l-2.2,2.2h-45.4c-45.3,0-45.5,0-47-1.2c-3.2-2.5-3.1-0.8-3.1-44.2c0-37.6,0.1-40,1-41.8c2.2-4.1-0.4-3.9,49.2-3.9C237.3,82.3,238.7,82.3,240.4,83.4z"/><path fill="#000000" d="M40.9,111c-10.3,1.8-16.5,10-15.9,20.8c0.5,7.8,4.4,13.4,11,15.8c3.5,1.2,11.9,1.4,15.8,0.3l2.3-0.7v-4.9v-4.9l-2.3,0.8c-3.6,1.3-8.8,1.1-11-0.4c-3.3-2.2-4.1-3.9-4.1-8.1c0-4.1,0.8-5.7,3.7-7.9c2-1.5,8-1.9,11.3-0.7l2.3,0.8v-5.1v-5.1l-2.9-0.4C45.4,110.5,43.9,110.5,40.9,111z"/><path fill="#000000" d="M73.3,110.9c-4,0.7-7.2,2.5-10.3,5.8c-3.6,4-4.7,7.3-4.7,13.7c0,3.8,0.3,5.6,1.2,7.6c2.9,6.5,9.3,10.5,16.7,10.6c5.5,0,9.2-1.3,12.7-4.5c4.6-4.1,6.2-8.3,6.2-15.4c-0.1-6.7-2.8-12-7.8-15.2C83.4,111.2,78.1,110.1,73.3,110.9z M80.5,121.8c1.9,1.6,2.8,4.2,2.8,8.4c0,5.5-2.6,8.9-6.8,8.9c-4.4,0-6.4-2.9-6.4-9.3c0-4.5,1.3-7.7,3.4-8.7C75.9,119.9,78.7,120.2,80.5,121.8z"/><path fill="#000000" d="M100.5,130v18.6l10.1-0.3c8.7-0.3,10.5-0.4,13.3-1.5c4.1-1.6,7.6-4.7,9.5-8.8c1.4-2.8,1.5-3.6,1.5-8.9c0-4.9-0.2-6.2-1.3-8.6c-1.6-3.5-4-5.8-7.6-7.5c-2.5-1.2-3.6-1.3-14.2-1.4l-11.5-0.2V130z M119.1,121.1c4,2.1,5.6,9,3.1,13.8c-1.4,2.7-4.9,4.7-8.3,4.7h-2.4v-10v-10l3,0.3C116.1,120.1,118.2,120.6,119.1,121.1z"/><path fill="#000000" d="M149.3,107.4c-0.2,0.4-0.2,1.2,0,1.7c0.3,0.7,2.6,0.8,16.4,0.8c8.9,0,16.3,0.2,16.4,0.3c0.2,0.2,0.1,1-0.3,1.9l-0.6,1.6h-12.5c-13.2,0-14.7,0.3-14.2,2.5c0.2,1,0.8,1,12.8,1.2c11.7,0.1,12.5,0.2,12.2,1.1c-0.2,0.5-0.6,1.4-0.7,1.9c-0.3,0.9-1.2,1-8.4,1c-8.5,0-9.7,0.3-9.3,2.6c0.2,0.9,1,1,8,1.3l7.8,0.3l-3.8,10.5c-2.1,5.7-3.8,11-3.8,11.6s0.4,1.4,0.9,1.5c1.5,0.6,28.9,0.4,30.1-0.2c0.8-0.4,1-1.2,1-2.8c0-3,1.1-5.4,3.5-7.5c6.7-5.9,16.7-2.1,17.8,6.8c0.2,1.5,0.6,3,0.9,3.4c0.7,0.9,8.2,0.9,9.1,0.1c0.9-0.9,0.9-16.8,0-17.3c-0.4-0.2-3.6-1.2-7.2-2.2l-6.5-1.7l-6.5-10.5l-6.5-10.4l-28.2-0.2C153.1,106.5,149.6,106.6,149.3,107.4z M210.2,120.6l6.4,10.5l6.5,1.7l6.5,1.7v5.6v5.7h-1.7c-1.3,0-1.7-0.2-1.7-1.3c-0.1-1.9-2.1-6-4-8c-7.6-7.9-21-4.6-23.9,5.9l-0.9,3.4h-11.7h-11.8l1.9-5.4c1.1-2.9,3.7-10.2,5.8-16.1c2.2-5.9,4.2-11.6,4.6-12.6l0.7-1.8l8.4,0.2l8.3,0.2L210.2,120.6z"/><path fill="#000000" d="M194.4,113.5l-5.1,0.2l-1.1,3.7c-2.2,7.6-3,11-2.6,11.9c0.3,0.8,1.6,0.9,11,0.9c8.9,0,10.9-0.2,11.4-0.8c0.6-0.7,0.2-2-2.4-7.9c-3-6.7-4.2-8.5-5.5-8.3C199.7,113.3,197.2,113.5,194.4,113.5z M201.5,121.8l2.1,4.6h-7h-6.9l0.3-1.5c0.2-0.8,0.7-2.8,1.2-4.4c0.7-2.7,0.9-2.9,2.9-3.1C199.1,116.8,199.2,116.8,201.5,121.8z"/><path fill="#000000" d="M208.8,140.7c-6,3-6.1,11.5-0.2,14.5c3.6,1.9,7.3,1,10.1-2.3c1.2-1.4,1.4-2.3,1.4-4.6c0-3.7-1.5-6.2-4.6-7.6C212.7,139.3,211.6,139.3,208.8,140.7z M215.2,145.1c1.7,1.8,1.9,2.8,0.9,4.6c-1.4,2.8-4.2,3.4-6.7,1.4c-2.3-1.8-1.8-6,0.9-7.1C212.5,143.2,213.6,143.4,215.2,145.1z"/></g></g></g>
</svg>